# xmcd CD database file
#
# Track frame offsets:
#	150
#	28087
#	50177
#	80572
#	111217
#	140859
#	172924
#	190093
#	228999
#
# Disc length: 3542 seconds
#
# Revision: 0
# Processed by: cddbd v1.5.2PL0 Copyright (c) Steve Scherf et al.
# Submitted via: CDex 1.70beta2
#
DISCID=7b0dd409
DTITLE=Gregory Fine Trio - Happy Bluesday
DYEAR=1998
DGENRE=Jazz
TTITLE0=There Is No Greater Love
TTITLE1=Waltz fo Natalie
TTITLE2=Hoe Deep Is The Ocean
TTITLE3=Georgia On My Mind
TTITLE4=Reunion Blues
TTITLE5=I've Never Been In Love Before
TTITLE6=Just Friends
TTITLE7=How Long Has This Been Going On
TTITLE8=Happy Bluesday
EXTD=YEAR: 1998
EXTT0=
EXTT1=
EXTT2=
EXTT3=
EXTT4=
EXTT5=
EXTT6=
EXTT7=
EXTT8=
PLAYORDER=
